<?xml version="1.0" encoding="UTF-8" standalone="no"?>
<!DOCTYPE svg PUBLIC "-//W3C//DTD SVG 1.0//EN" "http://www.w3.org/TR/2001/PR-SVG-20010719/DTD/svg10.dtd">
<svg width="15cm" height="25cm" viewBox="3 36 284 481" xmlns="http://www.w3.org/2000/svg" xmlns:xlink="http://www.w3.org/1999/xlink">
  <text font-size="12.8" style="fill: #000000;text-anchor:start;font-family:sans-serif;font-style:normal;font-weight:normal" x="205" y="48">
    <tspan x="205" y="48"></tspan>
  </text>
  <g>
    <rect style="fill: #ffffff" x="20.45" y="162" width="251.1" height="64"/>
    <rect style="fill: none; fill-opacity:0; stroke-width: 2; stroke: #000000" x="20.45" y="162" width="251.1" height="64"/>
    <text font-size="12.8" style="fill: #000000;text-anchor:middle;font-family:sans-serif;font-style:normal;font-weight:normal" x="146" y="189.9">
      <tspan x="146" y="189.9">Lade SKOS Vollabzug</tspan>
      <tspan x="146" y="205.9">in rdf4j</tspan>
    </text>
  </g>
  <g>
    <rect style="fill: #ffffff" x="39.85" y="271" width="212.3" height="54"/>
    <rect style="fill: none; fill-opacity:0; stroke-width: 2; stroke: #000000" x="39.85" y="271" width="212.3" height="54"/>
    <text font-size="12.8" style="fill: #000000;text-anchor:middle;font-family:sans-serif;font-style:normal;font-weight:normal" x="146" y="293.9">
      <tspan x="146" y="293.9">Hole rdf-Triple </tspan>
      <tspan x="146" y="309.9">zu jedem SKOS Konzept</tspan>
    </text>
  </g>
  <g>
    <rect style="fill: #ffffff" x="41.45" y="370" width="207.1" height="54"/>
    <rect style="fill: none; fill-opacity:0; stroke-width: 2; stroke: #000000" x="41.45" y="370" width="207.1" height="54"/>
    <text font-size="12.8" style="fill: #000000;text-anchor:middle;font-family:sans-serif;font-style:normal;font-weight:normal" x="145" y="392.9">
      <tspan x="145" y="392.9">Konvertiere SKOS</tspan>
      <tspan x="145" y="408.9">nach Json-Ld</tspan>
    </text>
  </g>
  <g>
    <rect style="fill: #ffffff" x="4.3" y="462" width="281.4" height="54"/>
    <rect style="fill: none; fill-opacity:0; stroke-width: 2; stroke: #000000" x="4.3" y="462" width="281.4" height="54"/>
    <text font-size="12.8" style="fill: #000000;text-anchor:middle;font-family:sans-serif;font-style:normal;font-weight:normal" x="145" y="484.9">
      <tspan x="145" y="484.9">indexiere Json-ld </tspan>
      <tspan x="145" y="500.9">in Elasticsearch</tspan>
    </text>
  </g>
  <g>
    <rect style="fill: #ffffff" x="43.825" y="49" width="200.175" height="68"/>
    <rect style="fill: none; fill-opacity:0; stroke-width: 2; stroke: #000000" x="43.825" y="49" width="200.175" height="68"/>
    <text font-size="12.8" style="fill: #000000;text-anchor:middle;font-family:sans-serif;font-style:normal;font-weight:normal" x="143.913" y="78.9">
      <tspan x="143.913" y="78.9">Elasticsearch konfigurieren</tspan>
      <tspan x="143.913" y="94.9">für deutsch &amp; englisch </tspan>
    </text>
  </g>
  <g>
    <line style="fill: none; fill-opacity:0; stroke-width: 2; stroke: #000000" x1="143.913" y1="117" x2="144.842" y2="151.294"/>
    <polygon style="fill: #000000" points="145.045,158.792 139.776,148.931 144.842,151.294 149.773,148.66 "/>
    <polygon style="fill: none; fill-opacity:0; stroke-width: 2; stroke: #000000" points="145.045,158.792 139.776,148.931 144.842,151.294 149.773,148.66 "/>
  </g>
  <g>
    <line style="fill: none; fill-opacity:0; stroke-width: 2; stroke: #000000" x1="146" y1="226" x2="146" y2="261.264"/>
    <polygon style="fill: #000000" points="146,268.764 141,258.764 146,261.264 151,258.764 "/>
    <polygon style="fill: none; fill-opacity:0; stroke-width: 2; stroke: #000000" points="146,268.764 141,258.764 146,261.264 151,258.764 "/>
  </g>
  <g>
    <line style="fill: none; fill-opacity:0; stroke-width: 2; stroke: #000000" x1="146" y1="325" x2="145.216" y2="360.266"/>
    <polygon style="fill: #000000" points="145.05,367.764 140.273,357.656 145.216,360.266 150.271,357.878 "/>
    <polygon style="fill: none; fill-opacity:0; stroke-width: 2; stroke: #000000" points="145.05,367.764 140.273,357.656 145.216,360.266 150.271,357.878 "/>
  </g>
  <g>
    <line style="fill: none; fill-opacity:0; stroke-width: 2; stroke: #000000" x1="145" y1="424" x2="145" y2="451.263"/>
    <polygon style="fill: #000000" points="145,458.763 140,448.763 145,451.263 150,448.763 "/>
    <polygon style="fill: none; fill-opacity:0; stroke-width: 2; stroke: #000000" points="145,458.763 140,448.763 145,451.263 150,448.763 "/>
  </g>
</svg>
