<?xml version="1.0" encoding="UTF-8" standalone="no"?>
<svg
   xmlns:dc="http://purl.org/dc/elements/1.1/"
   xmlns:cc="http://creativecommons.org/ns#"
   xmlns:rdf="http://www.w3.org/1999/02/22-rdf-syntax-ns#"
   xmlns:svg="http://www.w3.org/2000/svg"
   xmlns="http://www.w3.org/2000/svg"
   xmlns:sodipodi="http://sodipodi.sourceforge.net/DTD/sodipodi-0.dtd"
   xmlns:inkscape="http://www.inkscape.org/namespaces/inkscape"
   version="1.1"
   viewBox="0 -512 1196 143"
   id="svg6"
   sodipodi:docname="b_a_u_h_a_u_s_a_r_c_h_i_v.liga_bauhaus-logo-Bold.svg"
   width="1196"
   height="143"
   inkscape:version="0.92.1 r15371">
  <metadata
     id="metadata12">
    <rdf:RDF>
      <cc:Work
         rdf:about="">
        <dc:format>image/svg+xml</dc:format>
        <dc:type
           rdf:resource="http://purl.org/dc/dcmitype/StillImage" />
        <dc:title></dc:title>
      </cc:Work>
    </rdf:RDF>
  </metadata>
  <defs
     id="defs10" />
  <sodipodi:namedview
     pagecolor="#ffffff"
     bordercolor="#666666"
     borderopacity="1"
     objecttolerance="10"
     gridtolerance="10"
     guidetolerance="10"
     inkscape:pageopacity="0"
     inkscape:pageshadow="2"
     inkscape:window-width="640"
     inkscape:window-height="480"
     id="namedview8"
     showgrid="false"
     fit-margin-top="0"
     fit-margin-left="0"
     fit-margin-right="0"
     fit-margin-bottom="0"
     inkscape:zoom="0.11523438"
     inkscape:cx="1001"
     inkscape:cy="1028"
     inkscape:window-x="0"
     inkscape:window-y="0"
     inkscape:window-maximized="0"
     inkscape:current-layer="svg6" />
  <path
     style="fill:currentColor"
     inkscape:connector-curvature="0"
     id="path2"
     d="m 0,-416 v -96 h 24 v 55 q 12,-4 23,-4 19,0 32,13 13,13 13,32 0,20 -13,33.5 Q 66,-369 47,-369 27,-369 13.5,-382.5 0,-396 0,-416 Z m 24,0 q 0,9 7,16 7,7 16,7 8,0 14,-7 6,-7 6,-16 0,-7 -6,-13.5 -6,-6.5 -14,-6.5 -9,0 -16,6 -7,6 -7,14 z m 64,43 41,-86 h 18 l 41,86 h -29 l -22,-47 -23,47 z m 100,-37 v -49 h 25 v 49 q 0,17 16,17 16,0 16,-17 v -49 h 25 v 49 q 0,19 -11,30 -11,11 -30,11 -19,0 -30,-11 -11,-11 -11,-30 z m 96,37 v -139 h 25 v 59 q 5,-8 20,-8 35,0 35,39 v 49 h -25 v -49 q 0,-14 -14,-14 -16,0 -16,14 v 49 z m 90,0 41,-86 h 19 l 39,86 h -27 l -23,-47 -22,47 z m 101,-37 v -49 h 24 v 49 q 0,17 17,17 16,0 16,-17 v -49 h 25 v 49 q 0,19 -11,30 -11,11 -30,11 -19,0 -30,-11 -11,-11 -11,-30 z m 92,8 q 0,31 41,31 37,0 37,-29 0,-12 -10,-19 -10,-7 -17,-7 -20,-5 -20,-10 0,-7 8,-7 12,0 12,9 h 25 q 0,-27 -37,-27 -17,0 -27,8.5 -10,8.5 -10,18.5 0,19 24,24 3,1 10.5,3 7.5,2 11,4 3.5,2 3.5,5 0,9 -12,9 -5,0 -9,-3 -4,-3 -5,-7 l -1,-3 z m 100,-10 h 39 v -20 h -39 z m 43,39 41,-86 h 19 l 41,86 h -27 l -23,-47 -22,47 z m 111,0 v -86 h 24 v 86 z m 24,-72 q 0,-14 17,-14 14,0 14,14 0,15 -14,15 -17,0 -17,-15 z m 29,29 q 0,-19 13.5,-32 13.5,-13 33.5,-13 25,0 37,18 l -18,13 q -13,-9 -19,-9 -9,0 -15.5,7 -6.5,7 -6.5,16 0,9 6.5,16 6.5,7 15.5,7 12,0 19,-11 l 18,15 q -14,18 -37,18 -20,0 -33.5,-13 -13.5,-13 -13.5,-32 z m 94,43 h 25 v -49 q 0,-14 16,-14 17,0 17,14 v 49 h 24 v -49 q 0,-39 -37,-39 -15,0 -20,8 v -59 h -25 z m 94,-119 q 0,-14 15,-14 6,0 11,4 5,4 5,10 0,6 -5,11.5 -5,5.5 -11,5.5 -6,0 -10.5,-5.5 -4.5,-5.5 -4.5,-11.5 z m 2,119 v -86 h 25 v 86 z m 31,-86 h 29 l 22,47 23,-47 h 27 l -41,86 h -19 z" />
</svg>
